<svg xmlns="http://www.w3.org/2000/svg" viewBox="0 0 192 192" role="img" aria-label="Miaosic icon">
  <defs>
    <linearGradient id="bg" x1="24" y1="16" x2="168" y2="176" gradientUnits="userSpaceOnUse">
      <stop stop-color="#9AE6FF"/>
      <stop offset="0.52" stop-color="#7FE19E"/>
      <stop offset="1" stop-color="#FFD86F"/>
    </linearGradient>
    <filter id="shadow" x="-20%" y="-20%" width="140%" height="140%">
      <feDropShadow dx="0" dy="10" stdDeviation="8" flood-color="#102530" flood-opacity="0.26"/>
    </filter>
  </defs>
  <rect width="192" height="192" rx="44" fill="#0F2530"/>
  <circle cx="96" cy="96" r="72" fill="url(#bg)" filter="url(#shadow)"/>
  <path d="M62 88c0-22 15-38 34-38s34 16 34 38v20c0 21-15 34-34 34s-34-13-34-34V88Z" fill="#FFFDF7" stroke="#17242C" stroke-width="7"/>
  <path d="M66 63 48 42v40" fill="#FFFDF7" stroke="#17242C" stroke-width="7" stroke-linejoin="round"/>
  <path d="M126 63 144 42v40" fill="#FFFDF7" stroke="#17242C" stroke-width="7" stroke-linejoin="round"/>
  <circle cx="80" cy="93" r="7" fill="#17242C"/>
  <circle cx="112" cy="93" r="7" fill="#17242C"/>
  <path d="M92 108h8l-4 6-4-6Z" fill="#FF8FA2" stroke="#17242C" stroke-width="4" stroke-linejoin="round"/>
  <path d="M78 121c8 8 28 8 36 0" fill="none" stroke="#17242C" stroke-width="5" stroke-linecap="round"/>
  <path d="M128 118c18-2 28-12 28-29V62h-16v27c0 8-4 12-12 13v16Z" fill="#FFD86F" stroke="#17242C" stroke-width="6" stroke-linejoin="round"/>
  <circle cx="144" cy="61" r="13" fill="#FFD86F" stroke="#17242C" stroke-width="6"/>
</svg>
